<svg width="78" height="78" viewBox="0 0 78 78" fill="none" xmlns="http://www.w3.org/2000/svg">
<path fill-rule="evenodd" clip-rule="evenodd" d="M23.9952 3.42552C27.7656 3.25195 28.9677 3.21338 38.572 3.21338C48.1763 3.21338 49.3784 3.25516 53.1456 3.42552C56.9127 3.59588 59.4841 4.19695 61.7341 5.06802C64.0902 5.95838 66.2277 7.35016 67.9956 9.15016C69.7956 10.9148 71.1841 13.0491 72.0713 15.4084C72.9456 17.6584 73.5434 20.2298 73.717 23.9905C73.8906 27.7673 73.9291 28.9695 73.9291 38.5705C73.9291 48.1716 73.8873 49.377 73.717 53.1473C73.5466 56.908 72.9456 59.4795 72.0713 61.7295C71.1837 64.0889 69.7929 66.2266 67.9956 67.9941C66.2277 69.7941 64.0902 71.1827 61.7341 72.0698C59.4841 72.9441 56.9127 73.542 53.152 73.7155C49.3784 73.8891 48.1763 73.9277 38.572 73.9277C28.9677 73.9277 27.7656 73.8859 23.9952 73.7155C20.2345 73.5452 17.6631 72.9441 15.4131 72.0698C13.0537 71.1823 10.9159 69.7915 9.14842 67.9941C7.35028 66.2279 5.95838 64.0912 5.06949 61.7327C4.19842 59.4827 3.60056 56.9112 3.42699 53.1505C3.25342 49.3737 3.21484 48.1716 3.21484 38.5705C3.21484 28.9695 3.25663 27.7641 3.42699 23.997C3.59734 20.2298 4.19842 17.6584 5.06949 15.4084C5.95932 13.0495 7.35233 10.9129 9.15163 9.14695C10.9169 7.3492 13.0525 5.95733 15.4098 5.06802C17.6598 4.19695 20.2345 3.59909 23.9952 3.42552ZM52.8563 9.78981C49.1277 9.61945 48.0091 9.58409 38.5688 9.58409C29.1284 9.58409 28.0098 9.61945 24.2813 9.78981C20.8323 9.94731 18.9616 10.5227 17.7145 11.008C16.0656 11.6509 14.8859 12.4127 13.6484 13.6502C12.4743 14.7906 11.5714 16.1801 11.0063 17.7162C10.5209 18.9634 9.94556 20.8341 9.78806 24.283C9.6177 28.0116 9.58234 29.1302 9.58234 38.5705C9.58234 48.0109 9.6177 49.1295 9.78806 52.858C9.94556 56.307 10.5209 58.1777 11.0063 59.4248C11.572 60.958 12.4752 62.3498 13.6484 63.4909C14.7895 64.6641 16.1813 65.5673 17.7145 66.133C18.9616 66.6184 20.8323 67.1937 24.2813 67.3512C28.0098 67.5216 29.1252 67.557 38.5688 67.557C48.0123 67.557 49.1277 67.5216 52.8563 67.3512C56.3052 67.1937 58.1759 66.6184 59.4231 66.133C61.072 65.4902 62.2516 64.7284 63.4891 63.4909C64.6623 62.3498 65.5656 60.958 66.1313 59.4248C66.6166 58.1777 67.192 56.307 67.3495 52.858C67.5198 49.1295 67.5552 48.0109 67.5552 38.5705C67.5552 29.1302 67.5198 28.0116 67.3495 24.283C67.192 20.8341 66.6166 18.9634 66.1313 17.7162C65.4884 16.0673 64.7266 14.8877 63.4891 13.6502C62.3487 12.4761 60.9592 11.5731 59.4231 11.008C58.1759 10.5227 56.3052 9.94731 52.8563 9.78981ZM34.0527 49.4702C36.5748 50.5201 39.3832 50.6618 41.9982 49.8711C44.6132 49.0804 46.8725 47.4063 48.3904 45.1349C49.9082 42.8634 50.5904 40.1355 50.3204 37.4169C50.0503 34.6984 48.8449 32.1579 46.9098 30.2295C45.6763 28.9967 44.1848 28.0528 42.5427 27.4656C40.9006 26.8785 39.1487 26.6628 37.4132 26.8339C35.6777 27.0051 34.0018 27.5589 32.506 28.4556C31.0102 29.3522 29.7319 30.5693 28.763 32.0193C27.794 33.4693 27.1587 35.1161 26.9026 36.8411C26.6465 38.5661 26.776 40.3265 27.2819 41.9954C27.7878 43.6643 28.6575 45.2003 29.8282 46.4928C30.999 47.7853 32.4418 48.8022 34.0527 49.4702ZM25.7213 25.7198C27.4089 24.0322 29.4123 22.6936 31.6172 21.7803C33.8222 20.8669 36.1854 20.3969 38.572 20.3969C40.9586 20.3969 43.3218 20.8669 45.5267 21.7803C47.7317 22.6936 49.7351 24.0322 51.4227 25.7198C53.1103 27.4074 54.4489 29.4108 55.3623 31.6158C56.2756 33.8207 56.7456 36.1839 56.7456 38.5705C56.7456 40.9571 56.2756 43.3204 55.3623 45.5253C54.4489 47.7302 53.1103 49.7337 51.4227 51.4212C48.0145 54.8295 43.3919 56.7442 38.572 56.7442C33.752 56.7442 29.1295 54.8295 25.7213 51.4212C22.3131 48.013 20.3983 43.3905 20.3983 38.5705C20.3983 33.7506 22.3131 29.128 25.7213 25.7198ZM60.7763 23.1034C61.1945 22.7089 61.5293 22.2345 61.7608 21.7083C61.9924 21.1821 62.116 20.6148 62.1244 20.0399C62.1328 19.4651 62.0257 18.8944 61.8096 18.3617C61.5935 17.829 61.2727 17.345 60.8661 16.9385C60.4596 16.532 59.9757 16.2112 59.443 15.995C58.9102 15.7789 58.3396 15.6719 57.7647 15.6803C57.1899 15.6886 56.6226 15.8123 56.0964 16.0438C55.5702 16.2754 55.0958 16.6102 54.7013 17.0284C53.9341 17.8417 53.514 18.922 53.5303 20.0399C53.5466 21.1579 53.998 22.2255 54.7886 23.0161C55.5792 23.8067 56.6468 24.258 57.7647 24.2743C58.8827 24.2906 59.963 23.8706 60.7763 23.1034Z" fill="#DB0032"/>
</svg>
