<svg width="78" height="78" viewBox="0 0 78 78" fill="none" xmlns="http://www.w3.org/2000/svg">
<path d="M53.3568 18.7083C51.1601 16.1997 49.9493 12.9785 49.9497 9.64404H40.0175V49.5012C39.9425 51.6586 39.0324 53.7025 37.4792 55.2017C35.926 56.7009 33.8512 57.5382 31.6925 57.5369C27.1282 57.5369 23.3354 53.8083 23.3354 49.1798C23.3354 43.6512 28.6711 39.5048 34.1675 41.2083V31.0512C23.0782 29.5726 13.3711 38.1869 13.3711 49.1798C13.3711 59.8833 22.2425 67.5012 31.6604 67.5012C41.7532 67.5012 49.9497 59.3048 49.9497 49.1798V28.9619C53.9772 31.8543 58.8126 33.4061 63.7711 33.3976V23.4655C63.7711 23.4655 57.7282 23.7548 53.3568 18.7083Z" fill="#DB0032"/>
</svg>
