<svg width="100" height="74" viewBox="0 0 100 74" fill="none" xmlns="http://www.w3.org/2000/svg">
<path d="M83.8799 39.2403C80.4715 35.1799 76.0481 32.0952 71.0599 30.3003C74.4627 28.5462 78.1827 27.4921 81.9999 27.2003C82.1248 27.1854 82.2415 27.1304 82.3324 27.0434C82.4233 26.9564 82.4835 26.8422 82.5038 26.718C82.5241 26.5939 82.5035 26.4665 82.4451 26.355C82.3866 26.2436 82.2936 26.1542 82.1799 26.1003C77.4752 23.6652 72.2117 22.5132 66.9199 22.7603C69.3843 19.8351 72.4107 17.4344 75.8199 15.7003C75.9276 15.6375 76.0121 15.5416 76.061 15.4269C76.1099 15.3122 76.1206 15.1848 76.0914 15.0636C76.0622 14.9424 75.9948 14.8339 75.899 14.754C75.8033 14.6741 75.6844 14.6273 75.5599 14.6203C70.2794 14.1656 64.9728 15.1179 60.1799 17.3803C61.3383 13.7138 63.2147 10.3144 65.6999 7.3803C65.7824 7.28275 65.8304 7.16069 65.8364 7.03307C65.8424 6.90546 65.8061 6.77943 65.7332 6.67455C65.6602 6.56967 65.5547 6.49182 65.4329 6.45308C65.3112 6.41434 65.18 6.41687 65.0599 6.4603C59.9903 8.09483 55.4432 11.0411 51.8799 15.0003C51.5599 11.1913 52.0018 7.35666 53.1799 3.7203C53.2298 3.59762 53.2346 3.46122 53.1935 3.33533C53.1524 3.20943 53.068 3.10219 52.9553 3.03264C52.8426 2.96309 52.7088 2.93575 52.5779 2.95546C52.4469 2.97517 52.3272 3.04066 52.2399 3.1403C48.1894 6.55767 45.1067 10.9783 43.2999 15.9603C41.5432 12.5514 40.489 8.82433 40.1999 5.0003C40.185 4.87537 40.13 4.75866 40.043 4.66777C39.956 4.57688 39.8418 4.51674 39.7176 4.49643C39.5935 4.47611 39.4661 4.49671 39.3546 4.55513C39.2432 4.61355 39.1538 4.70662 39.0999 4.8203C36.6746 9.52857 35.5231 14.7894 35.7599 20.0803C32.8405 17.6103 30.4408 14.5851 28.6999 11.1803C28.6371 11.0726 28.5412 10.9881 28.4265 10.9392C28.3118 10.8903 28.1844 10.8796 28.0632 10.9088C27.942 10.938 27.8335 11.0054 27.7536 11.1012C27.6737 11.1969 27.6269 11.3158 27.6199 11.4403C27.1652 16.7208 28.1175 22.0274 30.3799 26.8203C26.7134 25.6619 23.314 23.7855 20.3799 21.3003C20.2823 21.2178 20.1603 21.1698 20.0327 21.1638C19.9051 21.1578 19.779 21.1941 19.6742 21.267C19.5693 21.34 19.4914 21.4455 19.4527 21.5673C19.4139 21.689 19.4165 21.8201 19.4599 21.9403C21.0996 27.0074 24.0451 31.5533 27.9999 35.1203C24.1893 35.4459 20.3523 34.9969 16.7199 33.8003C16.597 33.7642 16.4657 33.7699 16.3463 33.8163C16.227 33.8627 16.1264 33.9473 16.0601 34.0569C15.9939 34.1665 15.9658 34.2949 15.9803 34.4222C15.9947 34.5494 16.0508 34.6683 16.1399 34.7603C19.563 38.8046 23.9818 41.886 28.9599 43.7003C25.551 45.457 21.8239 46.5112 17.9999 46.8003C17.875 46.8152 17.7583 46.8702 17.6674 46.9572C17.5765 47.0442 17.5163 47.1584 17.496 47.2826C17.4757 47.4067 17.4963 47.5341 17.5547 47.6456C17.6132 47.757 17.7062 47.8464 17.8199 47.9003C22.5282 50.3256 27.789 51.4771 33.0799 51.2403C30.6159 54.1606 27.5891 56.5549 24.1799 58.2803C24.0623 58.3384 23.9679 58.4346 23.912 58.5533C23.8562 58.672 23.8422 58.8061 23.8723 58.9337C23.9025 59.0614 23.9751 59.175 24.0781 59.2561C24.1812 59.3372 24.3087 59.381 24.4399 59.3803C29.7204 59.835 35.027 58.8827 39.8199 56.6203C38.6615 60.2868 36.7851 63.6862 34.2999 66.6203C34.2063 66.7139 34.1489 66.8376 34.1379 66.9695C34.1268 67.1014 34.1628 67.2329 34.2395 67.3408C34.3162 67.4486 34.4287 67.5258 34.5569 67.5587C34.6851 67.5916 34.8208 67.578 34.9399 67.5203C40.0141 65.8937 44.568 62.9544 48.1399 59.0003C48.445 62.8105 47.9965 66.6435 46.8199 70.2803C46.77 70.403 46.7651 70.5394 46.8063 70.6653C46.8474 70.7912 46.9318 70.8984 47.0445 70.968C47.1572 71.0375 47.291 71.0649 47.4219 71.0451C47.5529 71.0254 47.6726 70.9599 47.7599 70.8603C51.8203 67.4519 54.905 63.0285 56.6999 58.0403C58.4566 61.4492 59.5108 65.1763 59.7999 69.0003C59.8148 69.1252 59.8698 69.2419 59.9568 69.3328C60.0438 69.4237 60.158 69.4838 60.2822 69.5042C60.4063 69.5245 60.5337 69.5039 60.6452 69.4455C60.7566 69.387 60.846 69.294 60.8999 69.1803C63.3252 64.472 64.4767 59.2112 64.2399 53.9203C67.1593 56.3903 69.559 59.4155 71.2999 62.8203C71.3628 62.928 71.4586 63.0125 71.5733 63.0614C71.688 63.1103 71.8153 63.121 71.9366 63.0918C72.0578 63.0626 72.1663 62.9952 72.2462 62.8994C72.3261 62.8037 72.3729 62.6848 72.3799 62.5603C72.8346 57.2798 71.8823 51.9732 69.6199 47.1803C73.2864 48.3387 76.6858 50.2151 79.6199 52.7003C79.7175 52.7828 79.8395 52.8308 79.9671 52.8368C80.0947 52.8428 80.2208 52.8065 80.3256 52.7336C80.4305 52.6606 80.5084 52.5551 80.5471 52.4333C80.5859 52.3116 80.5833 52.1804 80.5399 52.0603C78.8991 46.988 75.954 42.436 71.9999 38.8603C75.8101 38.5552 79.6431 39.0037 83.2799 40.1803C83.404 40.2441 83.5474 40.2593 83.6821 40.223C83.8168 40.1866 83.9331 40.1012 84.0081 39.9836C84.0832 39.866 84.1117 39.7246 84.088 39.5871C84.0642 39.4496 83.99 39.326 83.8799 39.2403Z" fill="#E0C7E6"/>
</svg>
