<svg width="114" height="76" viewBox="0 0 114 76" fill="none" xmlns="http://www.w3.org/2000/svg">
<path d="M57.0001 34.922L30.5293 8.36003C31.6367 7.2515 32.9518 6.3721 34.3993 5.7721C35.8468 5.17211 37.3984 4.86328 38.9653 4.86328C40.5322 4.86328 42.0838 5.17211 43.5313 5.7721C44.9788 6.3721 46.2939 7.2515 47.4013 8.36003C52.0981 13.1024 59.2801 32.7104 57.0001 34.922Z" fill="#E0C7E6"/>
<path d="M57.0002 34.922L83.4938 8.36004C81.2533 6.11984 78.2148 4.86133 75.0464 4.86133C71.8781 4.86133 68.8395 6.11984 66.599 8.36004C61.9022 13.1024 54.7202 32.7104 57.0002 34.922Z" fill="#E0C7E6"/>
<path d="M57.0005 34.9224L30.5297 61.416C29.4177 60.3081 28.5354 58.9916 27.9334 57.542C27.3314 56.0924 27.0215 54.5382 27.0215 52.9686C27.0215 51.3989 27.3314 49.8447 27.9334 48.3951C28.5354 46.9455 29.4177 45.629 30.5297 44.5212C35.1809 39.8244 54.7205 32.7108 57.0005 34.9224Z" fill="#E0C7E6"/>
<path d="M57 34.9224L83.4708 61.416C84.5828 60.3081 85.4651 58.9916 86.0671 57.542C86.6691 56.0924 86.979 54.5382 86.979 52.9686C86.979 51.3989 86.6691 49.8447 86.0671 48.3951C85.4651 46.9455 84.5828 45.629 83.4708 44.5212C78.8196 39.8244 59.28 32.7108 57 34.9224Z" fill="#E0C7E6"/>
<path d="M57 34.9221H94.4376C94.4437 31.7575 93.1939 28.7197 90.9625 26.4756C88.7312 24.2314 85.7006 22.9642 82.536 22.9521C75.9012 22.9521 57 31.7985 57 34.9221Z" fill="#E0C7E6"/>
<path d="M57.0001 34.9221H19.5625C19.5565 31.7575 20.8063 28.7197 23.0376 26.4756C25.2689 24.2314 28.2995 22.9642 31.4641 22.9521C38.0989 22.9521 57.0001 31.7985 57.0001 34.9221Z" fill="#E0C7E6"/>
<path d="M56.9555 30.3623L49.6367 71.0603H64.3655L56.9555 30.3623Z" fill="#E0C7E6"/>
</svg>
