<svg width="114" height="80" viewBox="0 0 114 80" fill="none" xmlns="http://www.w3.org/2000/svg">
<path d="M84.1538 49.8956C86.708 49.6545 89.0805 48.4694 90.8073 46.5719C92.5341 44.6745 93.491 42.2011 93.491 39.6356C93.491 37.07 92.5341 34.5967 90.8073 32.6992C89.0805 30.8018 86.708 29.6167 84.1538 29.3756C82.8579 29.3818 81.5744 29.6292 80.369 30.1052V29.8772C81.4538 29.388 82.4422 28.7085 83.2874 27.8708C84.2861 26.9237 85.0849 25.7862 85.6368 24.5253C86.1887 23.2645 86.4824 21.9058 86.5006 20.5296C86.5189 19.1534 86.2613 17.7875 85.743 16.5124C85.2247 15.2374 84.4563 14.0791 83.4831 13.1059C82.5099 12.1327 81.3516 11.3643 80.0766 10.846C78.8015 10.3277 77.4356 10.0701 76.0594 10.0883C74.6832 10.1066 73.3245 10.4003 72.0637 10.9522C70.8028 11.5041 69.6653 12.3029 68.7182 13.3016C67.818 14.2283 67.092 15.3095 66.575 16.4936H66.347C66.758 15.3759 66.974 14.196 66.9854 13.0052C66.7443 10.451 65.5592 8.07851 63.6617 6.35172C61.7643 4.62492 59.291 3.66797 56.7254 3.66797C54.1598 3.66797 51.6865 4.62492 49.7891 6.35172C47.8916 8.07851 46.7065 10.451 46.4654 13.0052C46.4716 14.3011 46.7191 15.5846 47.195 16.79H46.967C46.4779 15.7052 45.7983 14.7167 44.9606 13.8716C43.0117 12.0233 40.4183 11.009 37.7326 11.0446C35.0469 11.0802 32.4812 12.1629 30.582 14.0621C28.6828 15.9614 27.6 18.527 27.5644 21.2127C27.5289 23.8984 28.5432 26.4919 30.3914 28.4408C31.3181 29.341 32.3994 30.067 33.5834 30.584V30.812C32.4658 30.401 31.2858 30.185 30.095 30.1736C27.5408 30.4147 25.1684 31.5998 23.4416 33.4972C21.7148 35.3947 20.7578 37.868 20.7578 40.4336C20.7578 42.9991 21.7148 45.4725 23.4416 47.3699C25.1684 49.2674 27.5408 50.4525 30.095 50.6936C31.391 50.6873 32.6744 50.4399 33.8798 49.964V50.192C32.795 50.6811 31.8066 51.3607 30.9614 52.1984C29.1132 54.1473 28.0989 56.7407 28.1344 59.4264C28.17 62.1121 29.2528 64.6778 31.152 66.577C33.0512 68.4762 35.6169 69.5589 38.3026 69.5945C40.9883 69.6301 43.5817 68.6158 45.5306 66.7676C46.4308 65.8409 47.1568 64.7596 47.6738 63.5756H47.9018C47.4908 64.6932 47.2749 65.8732 47.2634 67.064C47.5045 69.6182 48.6896 71.9906 50.5871 73.7174C52.4845 75.4442 54.9578 76.4012 57.5234 76.4012C60.089 76.4012 62.5623 75.4442 64.4598 73.7174C66.3572 71.9906 67.5423 69.6182 67.7834 67.064C67.7772 65.768 67.5298 64.4846 67.0538 63.2792H67.2818C67.771 64.364 68.4505 65.3524 69.2882 66.1976C71.2371 68.0458 73.8306 69.0601 76.5163 69.0245C79.2019 68.9889 81.7676 67.9062 83.6668 66.007C85.5661 64.1078 86.6488 61.5421 86.6844 58.8564C86.72 56.1707 85.7056 53.5773 83.8574 51.6284C82.9307 50.7282 81.8494 50.0022 80.6654 49.4852V49.2572C81.7831 49.6682 82.963 49.8841 84.1538 49.8956ZM68.627 27.8024C69.7266 28.8994 71.0625 29.7307 72.5324 30.2325C74.0024 30.7344 75.5677 30.8936 77.1086 30.698L60.4874 37.9484C60.4097 37.7959 60.3181 37.6508 60.2138 37.5152C59.902 37.1105 59.5149 36.7698 59.0738 36.512L65.7086 19.6628C65.5733 21.1502 65.7644 22.6491 66.2684 24.055C66.7725 25.4609 67.5775 26.7398 68.627 27.8024ZM56.6114 23.2424C58.1643 23.2384 59.6958 22.8812 61.0902 22.1978C62.4846 21.5144 63.7053 20.5228 64.6598 19.298L58.0022 36.17C57.3429 36.0104 56.6551 36.0104 55.9958 36.17L48.791 19.4804C49.7472 20.6264 50.9429 21.549 52.294 22.1832C53.6452 22.8175 55.1189 23.1478 56.6114 23.1512V23.2424ZM44.801 28.3724C45.8981 27.2728 46.7293 25.9369 47.2312 24.4669C47.733 22.997 47.8922 21.4317 47.6966 19.8908L54.947 36.512C54.7945 36.5896 54.6495 36.6812 54.5138 36.7856C54.1091 37.0974 53.7685 37.4845 53.5106 37.9256L36.6842 31.2908C38.168 31.4242 39.6631 31.2322 41.065 30.7282C42.4669 30.2241 43.7419 29.4201 44.801 28.3724ZM36.2054 32.3396L53.0774 38.9972C52.9178 39.6564 52.9178 40.3443 53.0774 41.0036L36.479 48.2312C37.6643 47.2564 38.6141 46.0265 39.2576 44.6333C39.9011 43.2401 40.2216 41.7195 40.1953 40.1851C40.169 38.6507 39.7965 37.1421 39.1057 35.7717C38.4148 34.4014 37.4234 33.2048 36.2054 32.2712V32.3396ZM45.3254 52.1984C44.2258 51.1013 42.89 50.2701 41.42 49.7682C39.95 49.2664 38.3847 49.1072 36.8438 49.3028L53.465 42.0524C53.5427 42.2049 53.6343 42.3499 53.7386 42.4856C54.0505 42.8903 54.4376 43.2309 54.8786 43.4888L48.2438 60.338C48.385 58.854 48.2012 57.3571 47.705 55.9514C47.2089 54.5457 46.4124 53.265 45.371 52.1984H45.3254ZM57.341 56.7584C55.7882 56.7624 54.2566 57.1196 52.8622 57.8029C51.4678 58.4863 50.2471 59.4779 49.2926 60.7028L55.9502 43.8308C56.6095 43.9904 57.2973 43.9904 57.9566 43.8308L65.207 60.5204C64.2529 59.3719 63.0576 58.4476 61.706 57.8132C60.3544 57.1788 58.8797 56.8498 57.3866 56.8496L57.341 56.7584ZM69.1514 51.5372C68.0543 52.6368 67.2231 53.9726 66.7213 55.4426C66.2194 56.9126 66.0602 58.4778 66.2558 60.0188L59.051 43.4888C59.2035 43.4111 59.3485 43.3195 59.4842 43.2152C59.8889 42.9033 60.2295 42.5162 60.4874 42.0752L77.3138 48.71C75.8299 48.575 74.3344 48.7662 72.9323 49.2704C71.5301 49.7745 70.2552 50.5793 69.197 51.6284L69.1514 51.5372ZM60.875 40.9124C61.0346 40.2531 61.0346 39.5653 60.875 38.906L77.519 31.7924C76.3299 32.7647 75.3765 33.9938 74.7305 35.3874C74.0844 36.781 73.7625 38.3028 73.7888 39.8387C73.8151 41.3745 74.1891 42.8844 74.8825 44.255C75.5759 45.6256 76.5709 46.8213 77.7926 47.7524L60.875 40.9124Z" fill="#E0C7E6"/>
</svg>
